<!DOCTYPE svg PUBLIC "-//W3C//DTD SVG 1.1//EN" "http://www.w3.org/Graphics/SVG/1.1/DTD/svg11.dtd">
<!-- Uploaded to: SVG Repo, www.svgrepo.com, Transformed by: SVG Repo Mixer Tools -->
<svg fill="#10b981" version="1.1" id="Capa_1" xmlns="http://www.w3.org/2000/svg" xmlns:xlink="http://www.w3.org/1999/xlink" width="800px" height="800px" viewBox="0 0 94 94" xml:space="preserve" stroke="#10b981">
<g id="SVGRepo_bgCarrier" stroke-width="0"/>
<g id="SVGRepo_tracerCarrier" stroke-linecap="round" stroke-linejoin="round"/>
<g id="SVGRepo_iconCarrier"> <g> <g> <path d="M52.277,55.07c-0.723-6.863-2.332-16.103-3.52-22.333c-7.202,4.772-13.821,10.558-17.507,13.958 C31.466,46.795,52.277,55.07,52.277,55.07z"/> <path d="M24.513,69.172c3.018,7.2,11.759,10.701,19.113,7.646c5.942-2.471,8.082-8.684,8.815-13.69l-25.313-9.705 C24.419,57.252,22.078,62.839,24.513,69.172z"/> <path d="M45.559,26.082c-2.312-4.308-6.755-9.811-14.444-10.019c-7.806,0.027-14.393,6.757-14.393,14.719 c0,5.604,3.795,9.658,7.643,12.329C27.558,40.051,36.031,32.253,45.559,26.082z"/> <path d="M68.132,27.693c-4.491-1.854-8.971-0.658-12.635,1.332c0.991,5.049,3.457,18.139,4.233,27.19l0.771,0.008 c4.89-0.322,12.399-2.102,15.741-9.608C79.199,39.39,75.492,30.732,68.132,27.693z"/> <path d="M89,0H5C2.239,0,0,2.239,0,5v84c0,2.761,2.239,5,5,5h84c2.762,0,5-2.239,5-5V5C94,2.239,91.762,0,89,0z M83.367,49.607 l-0.036,0.086C78.6,60.415,68.087,63.678,60.123,64.008C59.135,70.902,56,80.044,46.589,83.955 c-2.739,1.138-5.639,1.709-8.551,1.709c-2.85,0-5.713-0.546-8.455-1.639c-5.618-2.234-9.96-6.474-12.228-11.931l-0.034-0.086 c-3.334-8.606-0.861-16.476,2.978-22.298c-5.51-3.727-11.306-9.813-11.306-18.929c0-5.874,2.295-11.459,6.458-15.732 c4.223-4.33,9.801-6.714,15.708-6.714h0.095c10.501,0.253,17.234,7.083,20.932,13.708c5.225-2.761,11.854-4.4,18.896-1.493 c5.431,2.241,9.718,6.495,12.076,11.974C85.548,38.079,85.623,44.146,83.367,49.607z"/> </g> </g> </g>
</svg>